<?xml version="1.0" encoding="UTF-8"?><svg id="b" xmlns="http://www.w3.org/2000/svg" viewBox="0 0 1180.62 175.15"><g id="c"><path d="M0,61.34h23.95l3.42,16.62v94.33H0V61.34ZM22.48,85.54c4.23-8.15,9.86-14.62,16.86-19.43,7-4.8,14.42-7.21,22.24-7.21,8.8,0,16.29,2,22.48,5.99,6.19,3.99,10.88,9.33,14.05,16.01,3.18,6.68,4.77,14.26,4.77,22.73v68.67h-27.37v-61.1c0-8.8-1.92-15.6-5.74-20.41-3.83-4.8-9.16-7.21-16.01-7.21-6.19,0-11.97,2.36-17.35,7.09-5.38,4.73-10.02,11.81-13.93,21.26v-26.39ZM94.33,85.54c4.89-8.15,11.16-14.62,18.82-19.43,7.66-4.8,15.56-7.21,23.71-7.21,13.03,0,23.17,4.28,30.43,12.83,7.25,8.55,10.88,20.41,10.88,35.56v65.01h-27.37v-61.1c0-8.8-1.92-15.6-5.74-20.41-3.83-4.8-9.16-7.21-16.01-7.21-6.19,0-11.85,2.41-16.98,7.21-5.13,4.81-9.82,12.51-14.05,23.09l-3.67-28.35Z"/><path d="M201.13,87.12c4.56-8.71,10.88-15.6,18.94-20.65,8.06-5.05,17.15-7.58,27.25-7.58,9.29,0,17.47,2.41,24.56,7.21,7.09,4.81,12.62,11.41,16.62,19.8,3.99,8.39,5.99,17.88,5.99,28.47l-10.51,2.44c0-6.35-1.34-12.1-4.03-17.23-2.69-5.13-6.4-9.16-11.12-12.1-4.73-2.93-10.1-4.4-16.13-4.4s-11.16,1.47-15.88,4.4c-4.73,2.93-8.47,6.96-11.24,12.1-2.77,5.13-4.15,10.88-4.15,17.23s1.38,12.1,4.15,17.23c2.77,5.13,6.51,9.13,11.24,11.97,4.72,2.85,10.02,4.28,15.88,4.28s11.36-1.42,16.01-4.28c4.64-2.85,8.35-6.84,11.12-11.97,2.77-5.13,4.15-10.88,4.15-17.23l10.51,2.44c0,10.59-2.04,20.04-6.11,28.35-4.07,8.31-9.65,14.91-16.74,19.79-7.09,4.89-15.19,7.33-24.32,7.33-10.1,0-19.18-2.57-27.25-7.7-8.06-5.13-14.38-12.06-18.94-20.77-4.56-8.71-6.84-18.53-6.84-29.45s2.28-20.97,6.84-29.69ZM309.88,61.34v110.95h-23.95l-3.42-16.62-.24-22h1.71v-32.75h-1.71l.24-22.97,3.42-16.62h23.95Z"/><path d="M335.54,0h27.37v172.29h-27.37V0ZM358.02,85.29c4.4-8.14,10.22-14.58,17.47-19.31,7.25-4.72,14.87-7.09,22.85-7.09,13.2,0,23.5,4.28,30.92,12.83,7.41,8.55,11.12,20.41,11.12,35.56v65.01h-26.88v-61.1c0-8.47-2-15.15-5.99-20.04-3.99-4.89-9.65-7.33-16.98-7.33-6.19,0-12.18,2.32-17.96,6.97-5.79,4.64-10.63,11.61-14.54,20.9v-26.39Z"/><path d="M463.35,87.12c4.56-8.71,10.88-15.6,18.94-20.65,8.06-5.05,17.15-7.58,27.25-7.58,9.29,0,17.47,2.41,24.56,7.21,7.09,4.81,12.62,11.41,16.62,19.8,3.99,8.39,5.99,17.88,5.99,28.47l-10.51,2.44c0-6.35-1.34-12.1-4.03-17.23-2.69-5.13-6.4-9.16-11.12-12.1-4.73-2.93-10.1-4.4-16.13-4.4s-11.16,1.47-15.88,4.4c-4.73,2.93-8.47,6.96-11.24,12.1-2.77,5.13-4.15,10.88-4.15,17.23s1.38,12.1,4.15,17.23c2.77,5.13,6.51,9.13,11.24,11.97,4.72,2.85,10.02,4.28,15.88,4.28s11.36-1.42,16.01-4.28c4.64-2.85,8.35-6.84,11.12-11.97,2.77-5.13,4.15-10.88,4.15-17.23l10.51,2.44c0,10.59-2.04,20.04-6.11,28.35-4.07,8.31-9.65,14.91-16.74,19.79-7.09,4.89-15.19,7.33-24.32,7.33-10.1,0-19.18-2.57-27.25-7.7-8.06-5.13-14.38-12.06-18.94-20.77-4.56-8.71-6.84-18.53-6.84-29.45s2.28-20.97,6.84-29.69ZM572.1,61.34v110.95h-23.95l-3.42-16.62-.24-22h1.71v-32.75h-1.71l.24-22.97,3.42-16.62h23.95Z"/><path d="M591.41,62.73h18.82l3.18,17.11c8.8-12.22,21.75-19.55,34.95-19.55,18.08,0,30.3,9.53,36.41,22.73,9.53-13.93,24.44-22.73,39.35-22.73,25.66,0,40.81,17.6,40.81,47.9v64.52h-22v-61.83c0-19.06-9.04-30.55-24.19-30.55-11,0-21.02,6.84-29.57,22.73v69.65h-21.99v-61.83c0-19.06-9.04-30.55-24.19-30.55-11,0-21.51,6.84-29.57,20.53v71.85h-22V62.73Z"/><path d="M887.6,117.47c0,2.44-.25,4.64-.73,6.84h-87.49c2.69,19.31,17.35,32.5,37.39,32.5,11.49,0,21.75-3.67,30.3-12.46l12.95,13.44c-11.73,11.97-26.15,17.35-42.77,17.35-33.97,0-58.41-24.68-58.41-57.43s23.95-57.43,55.47-57.43,53.28,24.68,53.28,57.19ZM799.62,108.92h67.21c-2.69-17.84-15.15-30.55-32.99-30.55s-30.79,12.46-34.21,30.55Z"/><path d="M894.2,117.72c0-32.5,22.73-57.43,53.52-57.43,15.4,0,28.1,7.09,36.66,18.57V.41h21.99v172.29h-18.82l-2.93-16.62c-8.31,11.73-21.26,19.06-36.9,19.06-30.55,0-53.52-24.93-53.52-57.43ZM986.09,117.72c0-21.02-15.15-37.39-34.95-37.39s-34.95,16.37-34.95,37.39,14.66,37.63,34.95,37.63,34.95-16.37,34.95-37.63Z"/><path d="M1026.66,27.54c0-8.06,6.6-14.42,14.66-14.42s14.42,6.35,14.42,14.42-6.6,14.42-14.42,14.42-14.66-6.6-14.66-14.42ZM1052.32,172.7h-21.99V62.73h21.99v109.97Z"/><path d="M1068.44,117.72c0-32.5,22.73-57.43,53.52-57.43,15.64,0,28.35,7.33,36.9,19.31l2.93-16.86h18.82v109.97h-18.82l-2.93-16.86c-8.55,11.97-21.26,19.31-36.9,19.31-30.55,0-53.52-24.93-53.52-57.43ZM1160.33,117.72c0-21.02-15.15-37.39-34.95-37.39s-34.95,16.37-34.95,37.39,14.66,37.63,34.95,37.63,34.95-16.37,34.95-37.63Z"/></g></svg>